<svg t="1770801033912" class="icon" viewBox="0 0 1024 1024" version="1.1" xmlns="http://www.w3.org/2000/svg" p-id="15712" width="100" height="100"><path d="M512.263139 736.662966c-3.160734 0-6.320444-0.849825-9.123843-2.550499-130.040603-78.881149-196.369943-151.690659-202.770249-222.590621a17.344617 17.344617 0 0 1-0.070648-1.581903v-19.228567c0-0.542659 0.025597-1.084295 0.075767-1.624906 6.316349-68.094517 58.093206-103.233238 103.527093-107.064616 6.62249-0.564161 13.048395-0.851873 19.082151-0.851873 43.264274 0 68.37199 15.139168 89.279729 34.311421 20.908762-19.173277 46.016478-34.311421 89.27768-34.311421 6.031708 0 12.457613 0.287712 19.100581 0.854944 45.411362 3.829331 97.188219 38.966004 103.519926 107.059498 0.05017 0.541635 0.075768 1.084295 0.075767 1.629001v19.228566c0 0.528325-0.022525 1.055626-0.070648 1.581903-6.400307 70.892796-72.731694 143.702305-202.779464 222.590622a17.59035 17.59035 0 0 1-9.123842 2.548451zM335.485242 509.112643c5.573008 56.464204 65.026957 120.129394 176.777897 189.32254 111.756059-69.19929 171.214104-132.864479 176.787111-189.32254v-17.55349c-4.772329-47.430464-40.261219-71.850129-71.382213-74.474346-5.670277-0.484298-11.089702-0.727982-16.127218-0.727983-38.802182 0-55.540659 14.260675-76.651127 36.015166a17.595469 17.595469 0 0 1-25.254131 0c-21.109444-21.754491-37.850993-36.015166-76.653175-36.015166-5.039564 0-10.460012 0.243685-16.108788 0.725935-31.141472 2.626266-66.628314 27.047979-71.38938 74.474347v17.555537z m176.783016 378.216072c-206.957941 0-375.328715-168.371798-375.328715-375.328715S305.310317 136.671285 512.268258 136.671285s375.328715 168.371798 375.328715 375.328715-168.370774 375.328715-375.328715 375.328715z m0-715.470587c-187.55429 0-340.141872 152.587582-340.141872 340.141872S324.713968 852.141872 512.268258 852.141872s340.141872-152.587582 340.141872-340.141872-152.587582-340.141872-340.141872-340.141872z" fill="#ffffff" p-id="15713"></path></svg>