<svg t="1775202366171" class="icon" viewBox="0 0 1024 1024" version="1.1" xmlns="http://www.w3.org/2000/svg" p-id="11060" width="200" height="200"><path d="M580.923077 722.051282c-5.907692 0-11.815385-3.938462-13.784615-9.189744l-13.784616-32.820512h-64.328205l-13.784615 32.820512c-2.625641 5.907692-7.876923 9.189744-13.784616 9.189744-1.969231 0-3.938462-0.65641-5.907692-1.31282l-32.820513-13.128206c-5.907692-2.625641-9.189744-7.876923-9.189743-14.441025v-16.410257C413.538462 596.020513 481.148718 523.158974 546.133333 452.923077c55.794872-59.733333 107.651282-116.184615 107.651282-167.384615 0-33.476923-28.882051-91.241026-137.189743-91.241026-111.589744 0-203.487179 108.307692-204.8 108.964102-2.625641 3.282051-6.564103 5.251282-11.158975 5.251283h-0.65641c-3.938462 0-7.876923-1.312821-10.502564-4.594872L193.641026 212.676923c-4.594872-4.594872-5.907692-11.815385-3.282052-17.723077 0.65641-1.969231 92.553846-179.85641 330.174359-179.85641 181.825641 0 323.610256 117.497436 323.610257 267.815385 0 118.153846-74.830769 195.610256-141.128205 263.220512-52.512821 53.825641-97.805128 100.430769-98.461539 157.538462 0 5.907692-3.938462 11.815385-9.846154 13.784615l-8.533333 3.282052c-1.312821 0.65641-3.282051 1.312821-5.251282 1.31282z m-64.984615-542.851282c120.123077 0 152.287179 66.953846 152.287179 106.338462 0 57.107692-54.482051 115.528205-112.246154 177.887179-62.358974 68.266667-128 139.158974-128 213.333333v16.410257l32.164103 13.128205 15.097436-37.415385c1.312821-2.625641 3.938462-4.594872 7.220512-4.594872H557.948718c3.282051 0 5.907692 1.969231 7.220513 4.594872l15.753846 36.758975 8.533333-3.282052c0.65641-63.015385 47.917949-111.589744 103.056411-168.041025 64.328205-65.641026 136.533333-140.471795 136.533333-252.717949 0-141.128205-135.220513-252.061538-307.85641-252.061538-226.461538 0-315.076923 169.353846-315.733334 171.323076l95.179487 92.553847c0-0.65641 96.492308-114.215385 215.302565-114.215385z" fill="#2c2c2c" p-id="11061"></path><path d="M661.005128 393.846154c-1.312821 0-3.282051-0.65641-4.594872-1.312821-3.282051-2.625641-4.594872-7.220513-1.96923-10.502564l0.65641-1.31282c2.625641-3.282051 7.220513-4.594872 10.502564-1.969231 3.282051 2.625641 4.594872 7.220513 1.969231 10.502564l-0.65641 1.312821c-1.312821 1.969231-3.282051 3.282051-5.907693 3.282051zM672.164103 376.123077c-1.312821 0-2.625641-0.65641-3.938462-1.312821-3.938462-1.969231-4.594872-7.220513-2.625641-10.502564l1.312821-2.625641c1.969231-3.938462 7.220513-5.251282 10.502564-2.625641 3.938462 1.969231 5.251282 7.220513 2.625641 10.502564l-1.312821 2.625641c-1.312821 2.625641-3.938462 3.938462-6.564102 3.938462z m10.502564-19.692308c-1.312821 0-1.969231 0-3.282052-0.65641-3.938462-1.969231-5.251282-6.564103-3.938461-10.502564l1.31282-2.625641c1.969231-3.938462 6.564103-5.907692 10.502564-3.938462 3.938462 1.969231 5.907692 6.564103 3.938462 10.502564l-1.312821 2.625641c-1.312821 2.625641-3.938462 4.594872-7.220512 4.594872z m8.533333-21.005128c-0.65641 0-1.312821 0-2.625641-0.65641-3.938462-1.312821-6.564103-5.907692-5.251282-9.846154 0-0.65641 0.65641-1.969231 0.65641-2.625641 1.312821-3.938462 5.907692-6.564103 9.846154-5.251282 3.938462 1.312821 6.564103 5.251282 5.251282 9.846154 0 1.312821-0.65641 1.969231-1.31282 3.282051 0 3.282051-3.282051 5.251282-6.564103 5.251282z m5.251282-21.661538h-1.31282c-3.938462-0.65641-7.220513-4.594872-6.564103-9.189744 0-0.65641 0-1.969231 0.65641-2.625641 0.65641-3.938462 4.594872-7.220513 8.533334-6.564103 3.938462 0.65641 7.220513 4.594872 6.564102 8.533334 0 1.312821 0 1.969231-0.65641 3.282051 0 3.938462-3.282051 6.564103-7.220513 6.564103z m1.312821-22.317949c-3.938462 0-7.876923-3.282051-7.876924-7.876923v-2.625641c0-4.594872 3.282051-7.876923 7.220513-7.876923 3.938462-0.65641 7.876923 3.282051 7.876923 7.220512v3.282052c0.65641 3.938462-2.625641 7.220513-7.220512 7.876923 0.65641 0 0.65641 0 0 0z m-2.625641-22.317949c-3.282051 0-6.564103-2.625641-7.876924-5.907692 0-0.65641-0.65641-1.969231-0.65641-2.625641-1.312821-3.938462 1.312821-8.533333 5.907693-9.189744 3.938462-1.312821 8.533333 1.312821 9.189743 5.907693 0 1.312821 0.65641 1.969231 0.65641 3.282051 0.65641 3.938462-1.969231 8.533333-5.907692 9.189743 0-1.312821-0.65641-0.65641-1.31282-0.65641z m-6.564103-21.661538c-3.282051 0-5.907692-1.969231-7.220513-4.594872-0.65641-0.65641-0.65641-1.969231-1.31282-2.625641-1.969231-3.938462 0-8.533333 3.938461-10.502564 3.938462-1.969231 8.533333 0 10.502564 3.938461 0.65641 1.312821 0.65641 1.969231 1.312821 3.282052 1.969231 3.938462 0 8.533333-3.938462 10.502564h-3.282051z m-374.153846-1.969231c-1.969231 0-4.594872-0.65641-5.907692-2.625641-2.625641-3.282051-2.625641-7.876923 0.65641-11.158974l2.625641-1.969231c3.282051-2.625641 7.876923-2.625641 11.158974 0.65641 2.625641 3.282051 2.625641 7.876923-0.65641 11.158974l-2.625641 1.969231c-1.312821 1.312821-3.282051 1.969231-5.251282 1.969231z m17.066666-14.441026c-1.969231 0-4.594872-1.312821-5.907692-2.625641-2.625641-3.282051-1.969231-8.533333 1.312821-11.158974l2.625641-1.969231c3.282051-2.625641 8.533333-1.969231 11.158974 1.312821 2.625641 3.282051 1.969231 8.533333-1.31282 11.158974l-2.625641 1.969231c-1.312821 0.65641-3.282051 1.312821-5.251283 1.31282z m345.928206-3.282051c-2.625641 0-5.251282-1.312821-6.564103-3.282051-0.65641-0.65641-1.312821-1.312821-1.969231-2.625641-2.625641-3.282051-1.969231-8.533333 1.969231-10.502564 3.282051-2.625641 8.533333-1.969231 10.502564 1.96923 0.65641 0.65641 1.312821 1.969231 1.969231 2.625641 2.625641 3.282051 1.312821 8.533333-1.969231 10.502564-0.65641 0.65641-1.969231 1.312821-3.938461 1.312821z m-327.548718-10.502564c-2.625641 0-4.594872-1.312821-6.564103-3.282051-2.625641-3.282051-1.969231-8.533333 1.969231-10.502565l2.625641-1.96923c3.282051-2.625641 8.533333-1.312821 10.502564 1.96923 2.625641 3.282051 1.312821 8.533333-1.969231 10.502565l-1.969231 1.96923c-1.969231 0.65641-3.282051 1.312821-4.594871 1.312821z m313.764102-7.220513c-1.969231 0-3.938462-0.65641-5.907692-2.625641l-1.969231-1.969231c-3.282051-3.282051-3.282051-7.876923 0-11.158974s7.876923-3.282051 11.158975 0l2.625641 2.625641c3.282051 3.282051 2.625641 7.876923 0 11.158974-1.969231 1.312821-3.938462 1.969231-5.907693 1.969231z m-295.384615-5.251282c-2.625641 0-5.251282-1.312821-6.564103-3.938462-1.969231-3.938462-1.312821-8.533333 2.625641-10.502564l2.625641-1.96923c3.938462-1.969231 8.533333-1.312821 10.502564 2.625641 1.969231 3.938462 1.312821 8.533333-2.625641 10.502564l-1.96923 1.96923c-1.312821 0.65641-3.282051 1.312821-4.594872 1.312821z m278.317949-9.846154c-1.969231 0-3.282051-0.65641-4.594872-1.31282-0.65641-0.65641-1.312821-1.312821-2.625641-1.969231-3.282051-2.625641-3.938462-7.220513-1.969231-11.158974 2.625641-3.282051 7.220513-3.938462 11.158974-1.969231 0.65641 0.65641 1.969231 1.312821 2.625641 1.969231 3.282051 2.625641 3.938462 7.220513 1.312821 11.158974-0.65641 2.625641-3.282051 3.282051-5.907692 3.282051z m-258.625641-1.969231c-2.625641 0-5.251282-1.312821-6.564103-3.938461-1.969231-3.938462-0.65641-8.533333 3.282051-10.502564l2.625641-1.312821c3.938462-1.969231 8.533333-0.65641 10.502564 3.282052 1.969231 3.938462 0.65641 8.533333-3.282051 10.502564l-2.625641 1.31282c-1.312821 0.65641-2.625641 0.65641-3.938461 0.65641z m19.692307-9.846153c-2.625641 0-5.907692-1.969231-7.220513-4.594872-1.969231-3.938462 0-8.533333 3.938462-10.502564l2.625641-1.312821c3.938462-1.969231 8.533333 0 10.502564 3.938462 1.969231 3.938462 0 8.533333-3.938461 10.502564l-2.625641 1.31282c-0.65641 0-1.969231 0.65641-3.282052 0.656411z m220.553846 0c-1.312821 0-2.625641 0-3.938461-0.656411l-2.625641-1.31282c-3.938462-1.969231-5.251282-6.564103-3.282051-10.502564 1.969231-3.938462 6.564103-5.251282 10.502564-3.282052l2.625641 1.312821c3.938462 1.969231 5.251282 6.564103 3.282051 10.502564-1.312821 2.625641-3.938462 3.938462-6.564103 3.938462z m-199.548718-8.533334c-3.282051 0-5.907692-1.969231-7.220512-5.251282-1.312821-3.938462 0.65641-8.533333 4.594871-9.846154 1.312821-0.65641 1.969231-0.65641 3.282052-1.31282 3.938462-1.312821 8.533333 0.65641 9.846154 4.594872 1.312821 3.938462-0.65641 8.533333-4.594872 9.846153l-2.625641 1.312821c-1.312821 0-2.625641 0.65641-3.282052 0.65641z m179.2-1.31282c-0.65641 0-1.969231 0-2.625641-0.656411l-2.625641-1.31282c-3.938462-1.312821-5.907692-5.907692-4.594871-9.846154 1.312821-3.938462 5.907692-5.907692 9.846153-4.594872l3.282052 1.312821c3.938462 1.312821 5.907692 5.907692 4.594872 9.846154-1.969231 3.282051-4.594872 5.251282-7.876924 5.251282z m-158.194871-5.907693c-3.282051 0-6.564103-1.969231-7.220513-5.907692-1.312821-3.938462 1.312821-8.533333 5.251282-9.846154l3.282051-0.65641c3.938462-1.312821 8.533333 1.312821 9.846154 5.251282 1.312821 3.938462-1.312821 8.533333-5.251282 9.846154l-2.625641 0.65641c-1.312821 0.65641-1.969231 0.65641-3.282051 0.65641z m136.533333-1.31282H584.205128l-3.282051-0.65641c-3.938462-1.312821-6.564103-5.251282-5.251282-9.189744 1.312821-3.938462 5.251282-6.564103 9.189743-5.251282l3.282052 0.65641c3.938462 1.312821 6.564103 5.251282 5.251282 9.846154-0.65641 2.625641-3.282051 4.594872-7.220513 4.594872z m-114.215385-3.938462c-3.938462 0-6.564103-2.625641-7.876923-6.564102-0.65641-3.938462 1.969231-8.533333 5.907693-9.189744l3.282051-0.65641c3.938462-0.65641 8.533333 1.969231 9.189743 6.564102 0.65641 3.938462-1.969231 8.533333-6.564102 9.189744l-3.282051 0.65641h-0.656411z m92.553847-0.65641h-1.312821l-3.282051-0.65641c-3.938462-0.65641-7.220513-4.594872-6.564103-9.189744 0.65641-3.938462 4.594872-7.220513 9.189744-6.564102l3.282051 0.65641c3.938462 0.65641 7.220513 4.594872 6.564103 9.189744-0.65641 3.938462-3.938462 6.564103-7.876923 6.564102z m-22.317949-2.625641H538.25641c-4.594872 0-7.220513-3.938462-7.220513-8.533333 0-4.594872 3.938462-7.220513 8.533334-7.220513h3.282051c4.594872 0.65641 7.220513 3.938462 7.220513 8.533333-0.65641 3.938462-3.938462 7.220513-7.876923 7.220513z m-47.917949 0c-3.938462 0-7.220513-3.282051-7.876923-7.220513-0.65641-3.938462 2.625641-7.876923 7.220513-8.533333h3.282051c4.594872-0.65641 7.876923 2.625641 8.533333 7.220513 0.65641 4.594872-2.625641 7.876923-7.220512 8.533333h-3.938462z m25.6-1.31282h-3.282051c-4.594872 0-7.876923-3.282051-7.876923-7.876924s3.282051-7.876923 7.876923-7.876923h3.282051c4.594872 0 7.876923 3.282051 7.876923 7.876923-0.65641 4.594872-3.938462 7.876923-7.876923 7.876924zM298.666667 259.282051c-1.969231 0-3.938462-0.65641-5.251282-2.625641-3.282051-3.282051-2.625641-7.876923 0-11.158974l1.31282-1.312821c3.282051-3.282051 7.876923-2.625641 11.158974 0 3.282051 3.282051 2.625641 7.876923 0 11.158975l-1.31282 1.31282c-1.969231 1.969231-3.938462 2.625641-5.907692 2.625641zM731.897436 143.753846c-1.969231 0-3.938462-0.65641-5.251282-1.969231l-1.312821-1.31282c-3.282051-2.625641-3.282051-7.876923-0.65641-11.158974s7.876923-3.282051 11.158974-0.656411l1.312821 1.312821c3.282051 2.625641 3.282051 7.876923 0.65641 11.158974-1.312821 1.969231-3.938462 2.625641-5.907692 2.625641zM584.861538 624.902564c-1.312821 0-2.625641-0.65641-3.938461-1.31282-3.938462-1.969231-4.594872-7.220513-2.625641-10.502565l1.31282-2.625641c1.969231-3.938462 7.220513-4.594872 10.502565-2.625641 3.938462 1.969231 4.594872 7.220513 2.625641 10.502565l-1.312821 2.625641c-1.312821 1.969231-3.938462 3.938462-6.564103 3.938461z m12.471795-19.035897c-1.312821 0-3.282051-0.65641-4.594871-1.312821-3.282051-2.625641-4.594872-7.220513-1.969231-10.502564l1.969231-2.625641c2.625641-3.282051 7.220513-4.594872 11.158974-1.969231 3.282051 2.625641 4.594872 7.220513 1.969231 11.158975l-1.969231 2.625641c-1.969231 1.969231-4.594872 2.625641-6.564103 2.625641z m13.128205-17.066667c-1.969231 0-3.282051-0.65641-4.594871-1.969231-3.282051-2.625641-3.938462-7.876923-1.312821-11.158974l1.969231-2.625641c2.625641-3.282051 7.876923-3.938462 11.158974-1.312821 3.282051 2.625641 3.938462 7.876923 1.312821 11.158975l-1.969231 2.625641c-1.969231 1.969231-4.594872 3.282051-6.564103 3.282051z m13.784616-17.066667c-1.969231 0-3.938462-0.65641-5.251282-1.96923-3.282051-2.625641-3.282051-7.876923-0.65641-11.158975l1.96923-2.625641c2.625641-3.282051 7.876923-3.282051 11.158975-0.65641s3.282051 7.876923 0.65641 11.158974l-1.969231 2.625641c-1.312821 1.312821-3.282051 2.625641-5.907692 2.625641z m15.097436-16.410256c-1.969231 0-3.938462-0.65641-5.251282-1.969231-3.282051-2.625641-3.282051-7.876923-0.656411-11.158974l1.969231-1.969231c2.625641-3.282051 7.876923-3.282051 11.158975-0.65641s3.282051 7.876923 0.65641 11.158974l-1.969231 1.969231c-1.969231 1.969231-3.938462 2.625641-5.907692 2.625641z m15.097436-15.753846c-1.969231 0-3.938462-0.65641-5.251282-1.969231-3.282051-3.282051-3.282051-7.876923 0-11.158974l1.96923-1.969231c3.282051-3.282051 7.876923-3.282051 11.158975 0s3.282051 7.876923 0 11.158974l-1.969231 1.969231c-1.969231 0.65641-3.938462 1.969231-5.907692 1.969231z m15.097436-16.410257c-1.969231 0-3.938462-0.65641-5.251283-1.96923-3.282051-3.282051-3.282051-7.876923 0-11.158975l1.969231-1.969231c3.282051-3.282051 7.876923-3.282051 11.158975 0s3.282051 7.876923 0 11.158975l-1.969231 1.969231c-1.969231 1.312821-3.938462 1.969231-5.907692 1.96923z m15.753846-15.753846c-1.969231 0-3.938462-0.65641-5.251282-1.969231-3.282051-3.282051-3.282051-7.876923 0-11.158974l1.96923-1.969231c3.282051-3.282051 7.876923-3.282051 11.158975 0s3.282051 7.876923 0 11.158975l-1.969231 1.96923c-1.969231 1.312821-3.938462 1.969231-5.907692 1.969231z m15.097436-15.753846c-1.969231 0-3.938462-0.65641-5.251282-1.969231-3.282051-3.282051-3.282051-7.876923 0-11.158974l1.96923-1.969231c2.625641-3.282051 7.876923-3.282051 11.158975-0.65641s3.282051 7.876923 0.65641 11.158974l-1.969231 2.625641c-2.625641 1.312821-4.594872 1.969231-6.564102 1.969231z m14.441025-16.410256c-1.969231 0-3.938462-0.65641-5.251282-1.969231-3.282051-2.625641-3.282051-7.876923-0.65641-11.158974l1.969231-1.969231c2.625641-3.282051 7.876923-3.282051 11.158974-0.656411s3.282051 7.876923 0.65641 11.158975l-1.96923 2.625641c-1.312821 1.312821-3.282051 1.969231-5.907693 1.969231z m14.441026-16.410257c-1.969231 0-3.282051-0.65641-5.251282-1.969231-3.282051-2.625641-3.938462-7.876923-1.312821-11.158974l1.969231-2.625641c2.625641-3.282051 7.876923-3.938462 11.158974-1.31282 3.282051 2.625641 3.938462 7.876923 1.312821 11.158974l-1.969231 2.625641c-1.312821 2.625641-3.282051 3.282051-5.907692 3.282051z m13.784615-17.066666c-1.312821 0-3.282051-0.65641-4.594872-1.312821-3.282051-2.625641-3.938462-7.220513-1.31282-11.158974l1.969231-2.625641c2.625641-3.282051 7.220513-3.938462 11.158974-1.312821 3.282051 2.625641 3.938462 7.220513 1.312821 11.158975l-1.969231 2.625641c-1.969231 1.312821-3.938462 2.625641-6.564103 2.625641z m12.471795-17.723077c-1.312821 0-3.282051-0.65641-4.594872-1.312821-3.282051-2.625641-4.594872-7.220513-1.96923-10.502564l1.96923-2.625641c2.625641-3.282051 7.220513-4.594872 10.502564-1.969231 3.282051 2.625641 4.594872 7.220513 1.969231 10.502564l-1.969231 2.625641c-0.65641 1.969231-3.282051 3.282051-5.907692 3.282052z m11.815385-19.035898c-1.312821 0-2.625641-0.65641-3.938462-1.31282-3.938462-1.969231-5.251282-6.564103-2.625641-10.502564l1.312821-2.625641c1.969231-3.938462 6.564103-5.251282 10.502564-3.282052 3.938462 1.969231 5.251282 6.564103 3.282051 10.502564l-1.31282 2.625641c-1.969231 3.282051-4.594872 4.594872-7.220513 4.594872z m10.502564-19.692307c-1.312821 0-1.969231 0-3.282051-0.656411-3.938462-1.969231-5.251282-6.564103-3.938462-10.502564l1.312821-2.625641c1.969231-3.938462 6.564103-5.907692 10.502564-3.938461 3.938462 1.969231 5.907692 6.564103 3.938461 10.502564l-1.31282 2.625641c-1.969231 3.282051-4.594872 4.594872-7.220513 4.594872z m7.876923-20.348718c-0.65641 0-1.969231 0-2.625641-0.656411-3.938462-1.312821-5.907692-5.907692-4.594872-9.846154l1.312821-2.625641c1.312821-3.938462 5.907692-5.907692 9.846153-4.594871 3.938462 1.312821 5.907692 5.907692 4.594872 9.846153l-1.31282 2.625642c-0.65641 3.282051-3.938462 5.251282-7.220513 5.251282z m6.564102-21.005129h-1.96923c-3.938462-1.312821-6.564103-5.251282-5.907693-9.189743l0.656411-2.625641c1.312821-3.938462 5.251282-6.564103 9.189743-5.907693 3.938462 1.312821 6.564103 5.251282 5.907693 9.189744l-0.656411 3.282051c-0.65641 3.282051-3.282051 5.251282-7.220513 5.251282z m4.594872-21.661538h-1.31282c-3.938462-0.65641-7.220513-4.594872-6.564103-8.533333l0.65641-2.625641c0.65641-3.938462 4.594872-7.220513 8.533334-6.564103 3.938462 0.65641 7.220513 4.594872 6.564102 8.533333l-0.65641 3.282052c0 3.282051-3.282051 5.907692-7.220513 5.907692z m1.969231-21.661539c-4.594872 0-7.876923-3.938462-7.876923-7.876923v-2.625641c0-4.594872 3.938462-7.876923 7.876923-7.220512 4.594872 0 7.876923 3.938462 7.220513 7.876923v3.282051c0.65641 3.282051-3.282051 6.564103-7.220513 6.564102z m0-21.661538c-3.938462 0-7.220513-3.282051-7.876923-7.220513V269.128205c-0.65641-4.594872 2.625641-7.876923 7.220513-8.533333 3.938462-0.65641 7.876923 2.625641 8.533333 7.220513v3.282051c0 3.938462-3.282051 7.220513-7.876923 7.876923z m-2.625641-22.317949c-3.938462 0-7.220513-2.625641-7.876923-6.564102 0-0.65641-0.65641-1.969231-0.65641-2.625641-0.65641-3.938462 1.969231-8.533333 5.907692-9.189744 3.938462-0.65641 8.533333 1.969231 9.189744 5.907692 0 1.312821 0.65641 1.969231 0.65641 3.282052 0.65641 3.938462-1.969231 8.533333-6.564103 9.189743h-0.65641z m-5.251282-21.005128c-3.282051 0-6.564103-1.969231-7.220513-5.251282l-0.65641-2.625641c-1.312821-3.938462 0.65641-8.533333 5.251282-9.846154 3.938462-1.312821 8.533333 0.65641 9.846154 5.251282l0.65641 3.282051c1.312821 3.938462-1.312821 8.533333-5.251282 9.846154-1.312821-0.65641-1.969231-0.65641-2.625641-0.65641z m-7.876923-21.005128c-3.282051 0-5.907692-1.969231-7.220513-4.594872l-1.31282-2.625641c-1.969231-3.938462 0-8.533333 3.938461-10.502564 3.938462-1.969231 8.533333 0 10.502564 3.938461l1.312821 2.625641c1.969231 3.938462 0 8.533333-3.938462 10.502565-1.312821 0.65641-1.969231 0.65641-3.282051 0.65641z m-9.846154-19.035898c-2.625641 0-5.251282-1.312821-6.564103-3.938461l-1.31282-2.625641c-1.969231-3.938462-1.312821-8.533333 2.625641-10.502564 3.938462-1.969231 8.533333-1.312821 10.502564 2.625641l1.312821 2.625641c1.969231 3.938462 0.65641 8.533333-2.625641 10.502564-1.312821 0.65641-2.625641 1.312821-3.938462 1.31282z m-11.815385-19.035897c-2.625641 0-4.594872-1.312821-6.564102-3.282051-0.65641-0.65641-1.312821-1.312821-1.969231-2.625641-2.625641-3.282051-1.969231-8.533333 1.312821-11.158975 3.282051-2.625641 8.533333-1.969231 11.158974 1.312821 0.65641 0.65641 1.312821 1.969231 1.969231 2.625641 2.625641 3.282051 1.969231 8.533333-1.969231 11.158974-0.65641 1.969231-2.625641 1.969231-3.938462 1.969231z m-13.784615-17.066667c-1.969231 0-4.594872-0.65641-5.907692-2.625641l-1.969231-1.96923c-2.625641-3.282051-2.625641-7.876923 0.65641-11.158975 3.282051-2.625641 7.876923-2.625641 11.158975 0.65641 0.65641 0.65641 1.312821 1.312821 1.96923 2.625641 2.625641 3.282051 2.625641 7.876923-0.65641 11.158975-1.969231 0.65641-3.282051 1.312821-5.251282 1.31282zM582.892308 638.030769l-7.220513-3.282051-7.220513-3.282051 0.65641-1.312821c1.969231-3.938462 6.564103-5.251282 10.502564-3.282051 3.938462 1.969231 5.251282 6.564103 3.282052 10.502564v0.65641z" fill="#2c2c2c" p-id="11062"></path><path d="M520.533333 937.353846c-21.661538 0-43.979487-8.533333-60.389743-24.94359-3.282051-3.282051-3.282051-7.876923 0-11.158974s7.876923-3.282051 11.158974 0c27.569231 27.569231 71.548718 27.569231 99.117949 0 27.569231-27.569231 27.569231-71.548718 0-99.117949-3.282051-3.282051-3.282051-7.876923 0-11.158974s7.876923-3.282051 11.158974 0c33.476923 33.476923 33.476923 87.302564 0 120.779487-17.066667 17.066667-39.384615 25.6-61.046154 25.6z" fill="#2c2c2c" p-id="11063"></path><path d="M465.394872 914.379487c-1.969231 0-3.938462-0.65641-5.251282-1.969231l-1.312821-1.31282c-3.282051-3.282051-2.625641-7.876923 0-11.158974 3.282051-3.282051 7.876923-2.625641 11.158975 0l0.65641 1.31282c3.282051 3.282051 3.282051 7.876923 0 11.158974-1.312821 1.312821-3.282051 1.969231-5.251282 1.969231zM452.923077 898.625641c-2.625641 0-5.251282-1.312821-6.564103-3.938462-0.65641-1.312821-1.312821-1.969231-1.31282-3.282051-1.969231-3.938462-0.65641-8.533333 3.282051-10.502564 3.938462-1.969231 8.533333-0.65641 10.502564 3.282051 0.65641 0.65641 0.65641 1.312821 1.312821 2.625641 1.969231 3.938462 0.65641 8.533333-2.625641 10.502565-1.969231 0.65641-3.282051 1.312821-4.594872 1.31282z m-7.876923-21.005128c-3.282051 0-6.564103-2.625641-7.220513-5.907692 0-1.312821-0.65641-1.969231-0.65641-3.282052-0.65641-3.938462 1.969231-8.533333 5.907692-9.189743 3.938462-0.65641 8.533333 1.969231 9.189744 5.907692 0 0.65641 0.65641 1.969231 0.65641 2.625641 1.312821 3.938462-1.312821 8.533333-5.907692 9.189744-0.65641 0.65641-1.312821 0.65641-1.969231 0.65641z m-1.969231-21.661539c-0.65641 0-0.65641 0 0 0-4.594872 0-7.876923-3.938462-7.876923-7.876923v-3.282051c0.65641-4.594872 3.938462-7.220513 8.533333-7.220513 4.594872 0.65641 7.220513 3.938462 7.220513 8.533334v2.625641c-0.65641 3.938462-3.938462 7.220513-7.876923 7.220512z m3.938462-21.661538c-0.65641 0-1.969231 0-2.625641-0.65641-3.938462-1.312821-5.907692-5.907692-4.594872-9.846154 0.65641-1.312821 0.65641-1.969231 1.31282-3.282051 1.312821-3.938462 5.907692-5.907692 9.846154-4.594872 3.938462 1.312821 5.907692 5.907692 4.594872 9.846154-0.65641 0.65641-0.65641 1.969231-0.65641 2.625641-1.312821 3.282051-4.594872 5.907692-7.876923 5.907692z m10.502564-19.692308c-1.312821 0-3.282051-0.65641-4.594872-1.31282-3.282051-2.625641-4.594872-7.220513-1.969231-11.158975 0.65641-0.65641 1.312821-1.969231 1.969231-2.625641 2.625641-3.282051 7.220513-3.938462 11.158974-1.31282 3.282051 2.625641 3.938462 7.220513 1.312821 11.158974l-1.969231 1.969231c-1.312821 1.969231-3.938462 3.282051-5.907692 3.282051z m15.097436-16.410256c-2.625641 0-4.594872-1.312821-5.907693-3.282051-2.625641-3.282051-1.969231-8.533333 1.312821-11.158975 0.65641-0.65641 1.969231-1.312821 2.625641-1.969231 3.282051-2.625641 8.533333-1.969231 11.158974 1.969231 2.625641 3.282051 1.969231 8.533333-1.969231 11.158975l-1.96923 1.96923c-1.969231 0.65641-3.282051 1.312821-5.251282 1.312821z m86.646153-5.907693c-1.312821 0-2.625641-0.65641-3.938461-1.31282-0.65641-0.65641-1.312821-0.65641-2.625641-1.312821-3.938462-1.969231-5.251282-6.564103-3.282051-10.502564 1.969231-3.938462 6.564103-5.251282 10.502564-3.282051 1.312821 0.65641 1.969231 1.312821 3.282051 1.312821 3.938462 1.969231 5.251282 6.564103 2.625641 10.502564-1.312821 3.282051-3.938462 4.594872-6.564103 4.594871z m-67.610256-4.594871c-3.282051 0-5.907692-1.969231-7.220513-4.594872-1.312821-3.938462 0.65641-8.533333 4.594872-9.846154 1.312821-0.65641 1.969231-0.65641 3.282051-1.31282 3.938462-1.312821 8.533333 0.65641 9.846154 4.594871 1.312821 3.938462-0.65641 8.533333-4.594872 9.846154-0.65641 0-1.969231 0.65641-2.625641 1.312821-1.312821-0.65641-1.969231 0-3.282051 0z m46.605128-3.938462h-1.969231c-0.65641 0-1.969231-0.65641-2.625641-0.65641-3.938462-0.65641-7.220513-4.594872-5.907692-9.189744 0.65641-3.938462 5.251282-7.220513 9.189744-5.907692 1.312821 0 1.969231 0.65641 3.282051 0.65641 3.938462 0.65641 6.564103 5.251282 5.907692 9.189744-0.65641 3.938462-3.938462 5.907692-7.876923 5.907692z m-24.943589-1.31282c-3.938462 0-7.220513-3.282051-7.876924-7.220513-0.65641-4.594872 2.625641-7.876923 7.220513-8.533334h3.282052c4.594872 0 7.876923 3.282051 7.876923 7.220513 0 4.594872-3.282051 7.876923-7.220513 7.876923h-2.625641c0 0.65641-0.65641 0.65641-0.65641 0.656411zM575.671795 804.758974c-1.969231 0-3.938462-0.65641-5.251282-1.96923l-1.312821-1.312821c-3.282051-3.282051-3.282051-7.876923 0-11.158974s7.876923-3.282051 11.158975 0l1.31282 1.31282c3.282051 3.282051 3.282051 7.876923 0 11.158975-1.969231 1.312821-3.938462 1.969231-5.907692 1.96923zM491.651282 888.779487c-1.969231 0-3.938462-0.65641-5.251282-1.969231-19.035897-19.035897-19.035897-49.887179 0-68.923077 9.189744-9.189744 21.661538-14.441026 34.789744-14.441025s25.6 5.251282 34.789743 14.441025c3.282051 3.282051 3.282051 7.876923 0 11.158975s-7.876923 3.282051-11.158974 0c-6.564103-6.564103-14.441026-9.846154-23.630769-9.846154s-17.066667 3.282051-23.63077 9.846154c-13.128205 13.128205-13.128205 34.133333 0 47.261538 3.282051 3.282051 3.282051 7.876923 0 11.158975-1.969231 0.65641-3.938462 1.312821-5.907692 1.31282z" fill="#2c2c2c" p-id="11064"></path><path d="M550.728205 831.671795c-1.969231 0-3.938462-0.65641-5.907692-2.625641l-0.65641-0.65641c-3.282051-3.282051-3.282051-7.876923 0-11.158975s7.876923-3.282051 11.158974 0l1.31282 1.312821c2.625641 3.282051 2.625641 7.876923-0.65641 11.158974-1.312821 1.312821-3.282051 1.969231-5.251282 1.969231zM511.34359 899.938462h-1.969231c-1.312821 0-2.625641-0.65641-3.282051-0.656411-3.938462-1.312821-6.564103-5.907692-5.251282-9.846154 1.312821-3.938462 5.907692-6.564103 9.846153-5.251282 0.65641 0 1.312821 0.65641 2.625642 0.656411 3.938462 0.65641 6.564103 5.251282 5.907692 9.189743-0.65641 3.282051-3.938462 5.907692-7.876923 5.907693z m18.379487 0c-3.282051 0-6.564103-2.625641-7.876923-5.907693-0.65641-3.938462 1.969231-8.533333 5.907692-9.189743 0.65641 0 1.312821-0.65641 2.625641-0.656411 3.938462-1.312821 8.533333 1.312821 9.846154 5.251282 1.312821 3.938462-1.312821 8.533333-5.251282 9.846154-1.312821 0.65641-1.969231 0.65641-3.282051 0.656411h-1.969231z m19.035897-10.502565c-1.969231 0-3.938462-0.65641-5.907692-2.625641-2.625641-3.282051-2.625641-7.876923 0.65641-11.158974l1.969231-1.969231c2.625641-3.282051 7.876923-3.282051 11.158974-0.65641s3.282051 7.876923 0.656411 11.158974l-1.312821 1.312821-1.31282 1.31282c-1.969231 1.969231-3.938462 2.625641-5.907693 2.625641z m11.158975-17.723076c-0.65641 0-1.312821 0-1.969231-0.656411-3.938462-1.312821-6.564103-5.907692-5.251282-9.846154 0-0.65641 0.65641-1.312821 0.65641-2.625641 0.65641-3.938462 5.251282-6.564103 9.189744-5.907692 3.938462 0.65641 6.564103 5.251282 5.907692 9.189744 0 1.312821-0.65641 2.625641-0.65641 3.282051-1.312821 4.594872-4.594872 6.564103-7.876923 6.564103z m0.65641-21.005129c-3.282051 0-6.564103-2.625641-7.876923-5.907692 0-0.65641-0.65641-1.312821-0.65641-2.625641-1.312821-3.938462 1.312821-8.533333 5.251282-9.846154 3.938462-1.312821 8.533333 1.312821 9.846154 5.251282 0.65641 1.312821 0.65641 2.625641 0.65641 3.282051 0.65641 3.938462-1.969231 8.533333-5.907693 9.189744 0 0.65641-0.65641 0.65641-1.31282 0.65641zM492.307692 890.092308c-1.969231 0-3.938462-0.65641-5.251282-1.969231l-1.31282-1.312821c-3.282051-3.282051-3.282051-7.876923 0-11.158974s7.876923-3.282051 11.158974 0l0.65641 0.65641c3.282051 2.625641 3.282051 7.876923 0.656411 11.158975-1.312821 1.312821-3.282051 2.625641-5.907693 2.625641z" fill="#2c2c2c" p-id="11065"></path><path d="M538.25641 1009.558974h-35.446154c-3.282051 0-5.907692-1.969231-7.220512-4.594871l-14.441026-34.133334c-5.907692-1.969231-11.158974-3.938462-17.066667-7.220513l-34.133333 13.784616c-2.625641 1.312821-5.907692 0.65641-8.533333-1.969231l-24.94359-24.94359c-1.969231-1.969231-2.625641-5.251282-1.969231-8.533333l13.784615-34.133333c-2.625641-5.251282-5.251282-11.158974-7.220512-17.066667l-34.133334-14.441026c-2.625641-1.312821-4.594872-3.938462-4.594871-7.220513V833.641026c0-3.282051 1.969231-5.907692 4.594871-7.220513l34.133334-14.441026c1.969231-5.907692 3.938462-11.158974 7.220512-17.066666l-13.784615-34.133334c-1.312821-2.625641-0.65641-5.907692 1.969231-8.533333l24.94359-24.94359c1.969231-1.969231 5.251282-2.625641 8.533333-1.969231l34.133333 13.784616c5.251282-2.625641 11.158974-5.251282 17.066667-7.220513l14.441026-34.133333c1.312821-2.625641 3.938462-4.594872 7.220512-4.594872H538.25641c3.282051 0 5.907692 1.969231 7.220513 4.594872l14.441026 34.133333c5.907692 1.969231 11.158974 3.938462 17.066666 7.220513l34.133334-13.784616c2.625641-1.312821 5.907692-0.65641 8.533333 1.969231l24.94359 24.94359c1.969231 1.969231 2.625641 5.251282 1.969231 8.533333l-13.784616 34.133334c2.625641 5.251282 5.251282 11.158974 7.220513 17.066666l34.133333 14.441026c2.625641 1.312821 4.594872 3.938462 4.594872 7.220513v35.446153c0 3.282051-1.969231 5.907692-4.594872 7.220513l-34.133333 14.441026c-1.969231 5.907692-3.938462 11.158974-7.220513 17.066667l13.784616 34.133333c1.312821 2.625641 0.65641 5.907692-1.969231 8.533333l-24.94359 24.94359c-1.969231 1.969231-5.251282 2.625641-8.533333 1.969231l-34.133334-13.784616c-5.251282 2.625641-11.158974 5.251282-17.066666 7.220513l-14.441026 34.133334c-1.312821 2.625641-3.938462 4.594872-7.220513 4.594871z m-30.194872-15.753846h24.94359l13.784616-32.820513c0.65641-1.969231 2.625641-3.938462 5.251282-4.594871 7.220513-1.969231 14.441026-5.251282 21.005128-8.533334 1.969231-1.312821 4.594872-1.312821 6.564102-0.65641l32.820513 13.128205 17.723077-17.723077-13.128205-32.820513c-0.65641-1.969231-0.65641-4.594872 0.65641-6.564102 3.282051-6.564103 6.564103-13.784615 8.533334-21.005128 0.65641-1.969231 1.969231-3.938462 4.594871-5.251282l32.820513-13.784616v-24.94359l-32.820513-13.784615c-1.969231-0.65641-3.938462-2.625641-4.594871-5.251282-1.969231-7.220513-5.251282-14.441026-8.533334-21.005128-1.312821-1.969231-1.312821-4.594872-0.65641-6.564103l13.128205-32.820513-17.723077-17.723077-32.820513 13.128206c-1.969231 0.65641-4.594872 0.65641-6.564102-0.656411-6.564103-3.282051-13.784615-6.564103-21.005128-8.533333-1.969231-0.65641-3.938462-1.969231-5.251282-4.594872l-13.784616-32.820513h-24.94359l-13.784615 32.820513c-0.65641 1.969231-2.625641 3.938462-5.251282 4.594872-7.220513 1.969231-14.441026 5.251282-21.005128 8.533333-1.969231 1.312821-4.594872 1.312821-6.564103 0.656411l-32.820513-13.128206-17.723076 17.723077 13.128205 32.820513c0.65641 1.969231 0.65641 4.594872-0.656411 6.564103-3.282051 6.564103-6.564103 13.784615-8.533333 21.005128-0.65641 1.969231-1.969231 3.938462-4.594872 5.251282l-32.820513 13.784615v24.94359l32.820513 13.784616c1.969231 0.65641 3.938462 2.625641 4.594872 5.251282 1.969231 7.220513 5.251282 14.441026 8.533333 21.005128 1.312821 1.969231 1.312821 4.594872 0.656411 6.564102l-13.128205 32.820513 17.723076 17.723077 32.820513-13.128205c1.969231-0.65641 4.594872-0.65641 6.564103 0.65641 6.564103 3.282051 13.784615 6.564103 21.005128 8.533334 1.969231 0.65641 3.938462 1.969231 5.251282 4.594871l13.784615 32.820513z" fill="#2c2c2c" p-id="11066"></path></svg>