<svg t="1772441717660" class="icon" viewBox="0 0 1024 1024" version="1.1" xmlns="http://www.w3.org/2000/svg" p-id="14610" width="200" height="200"><path d="M426.666667 170.666667a170.666667 170.666667 0 1 0 0 341.333333 170.666667 170.666667 0 0 0 0-341.333333zM170.666667 341.333333a256 256 0 1 1 512 0A256 256 0 0 1 170.666667 341.333333z m547.328-181.034666a42.666667 42.666667 0 0 1 60.373333 0 256 256 0 0 1 0 362.069333 42.666667 42.666667 0 1 1-60.373333-60.373333 170.666667 170.666667 0 0 0 0-241.322667 42.666667 42.666667 0 0 1 0-60.373333z m29.952 554.666666a42.666667 42.666667 0 0 1 51.712-31.018666c56.661333 14.165333 92.544 50.346667 113.152 91.648 19.968 39.893333 25.856 84.48 25.856 120.405333a42.666667 42.666667 0 1 1-85.333334 0c0-28.032-4.778667-58.154667-16.810666-82.261333-11.392-22.741333-28.885333-39.850667-57.557334-47.018667a42.666667 42.666667 0 0 1-31.018666-51.712zM277.333333 768C223.573333 768 170.666667 819.754667 170.666667 896a42.666667 42.666667 0 1 1-85.333334 0c0-112.298667 80.768-213.333333 192-213.333333h298.666667c111.232 0 192 101.034667 192 213.333333a42.666667 42.666667 0 1 1-85.333333 0c0-76.245333-52.906667-128-106.666667-128h-298.666667z" fill="#2c2c2c" p-id="14611"></path></svg>